<?xml version="1.0" encoding="UTF-8"?>
<svg version="1.1" viewBox="0 0 996 808" width="249" height="202" xmlns="http://www.w3.org/2000/svg">
<path transform="translate(68)" d="m0 0h816v803l-69 1h-745l-2-1z" fill="#5810EA"/>
<path transform="translate(68)" d="m0 0h816v803l-69 1h-745l-2-1zm57 44-5 1-1 38v160l1 15v20l-1 23-1 1-2 120v31l1 65v236l2 4 10 2h670l30-2 1-1 1-14 1-4 1-34v-254l1-100v-163l-1-89-1-54-1-1z" fill="#E400F8"/>
<path transform="translate(196,409)" d="m0 0h48l1 21 1 3h49v-14l1-10h47l1 1 1 17 1 4 9 3 1 3 1 20 2 1 34 1 1 1 1 22 10 2 1 1v81l-1 15-10 5-1 4-1 16-4 2-20 1v12l1 11 9 2 1 1v20l-10 7-1 4-1 16h-72l-1-17-2-5-9-3-1-2-1-45-1-1h-24l-1 48-11 3-2 22h-71l-1-1-2-17-5-5-5-6v-18l5-3 4-2 2-6v-13l-4-2-17-1-3-3-1-18-5-3-7-3v-90l1-7 9-4 3-20 1-1 34-1 1-3 2-20 2-2 7-2 2-13z" fill="#040405"/>
<path transform="translate(589,119)" d="m0 0h49l1 2v22l50 1v-24l1-1h49v25l12-1 1 25 11 1 1 2 1 23h23l1 1v24h12v50l-1 1h-11l-1 24-8 1h-15l-1 4 1 20 11 1v22l-3 3h-9v23l-1 1h-24v23l-1 2h-48l-12-1-1-1-1-22-25-1v23l-1 2h-39l-21-1-1-1v-22l-23-1-2-1-1-23-10-1-2-3v-20l1-1 10-1 1-1v-23h-18l-6-2-1-22-1-1-9-1-2-3v-46l2-1 10-1 1-23 24-1 1-25h8l3 1 1-27h13z" fill="#040404"/>
<path transform="translate(68)" d="m0 0h816v803l-69 1h-745l-2-1zm19 12-4 2-2 6-1 15v41l1 88v157l-1 19v325l1 42 1 74 1 7 6 4 26 2 647-1 76-1 24-1 5-5 1-244h1l1-12 2-10 1-37v-128l-1-84v-162l-1-20-2-19h-1l-1-9-1-42-2-4-3-1-52-1h-593l-107-1z" fill="#5810EA"/>
<path transform="translate(229,432)" d="m0 0 3 1 1 25 31-1 42 1v-25h25l1 1v24l-1 1h-23v22l5 1 19 1v24h24l1-24 1-1h22l2 1 1 36v63l-2 1h-23l-1-1-1-23-23-1v48l1 26 23 1 1 23-3 2h-48l-1-49-1-26-72-1v73l-2 3h-47l-2-5v-18l1-2h24v-75h-23l-1 4-1 20-2 1h-21l-2-1v-99h25l1 24 24 1v-25l24-1v-14l-1-9h-21l-2-1-1-8v-15l1-2z" fill="#00F8FD"/>
<path transform="translate(606,141)" d="m0 0 19 1 2 2v23h74l-1-22 2-3h24l1 1 1 16v33l21 1 3 3 1 21 23 1 1 1v48l-2 1h-23v25l-24 1 1 23h9l10 1 4 3 1 3v10l-2 8-6 2h-14l-4-2-1-2-1-21h-19l-5-3-1-22h-58l-15-1 1 23-4 2h-20l-3-2-1-6v-16l-22-1-2-1-1-4-1-19-22-1-2-2v-46l2-3h23v-21l2-4h23v-49z" fill="#F800FA"/>
<path transform="translate(118,302)" d="m0 0h1v150l5-2h4l4-6h7l5 2v2h9l8-3h3v-2l3-2 2-5 2-16 5-5h4v-2h2l-1-4 1-3 8-7h4 10l4-1h8l3-1 8 1 1-1h7l6 4-2 2 7 3 6 3 5 5v2h7l16-6 4-3h3v-2h2v-4h4 9l2 1 6-2 4-1h12l7-2 9 3v3l5 1 1 2 4 2 8 16 8 12 2 2v3l8 4v2l13 1 2 4 7 3 2 5 3 3 3 5 4 8v6l4 7 2 16v32l-1 31-2 9-1 10-3 6-3 3-11 22-5 11h-2l1 4-1 3-2 24-3 8-3 1-1 4-3 6-3 9-2 4-3 1h-27l-18-1-18-2-10-2-1 2-8-2-4-5-3-6-6-5-2-2-5-2-3 1-2 4-4 3h-2v2h-2l-1 5-4 7h-2v2l-2 1h-14l-10 2h-15l-10-2-1-2-14-1-6-4v-3h67l1-23 3-2 9-1v-48l1-1h24l2 2 1 47 9 2 2 2 1 4v17h72v-16l2-5 5-4 4-2v-20l-9-3-1-2-1-9v-10l3-3 18-1 3-1 1-16 2-5 9-4 1-15v-81l-10-3-1-2-1-20-34-1-3-2-1-23-9-2-2-5-1-17-47-1v24l-1 1h-49l-2-4v-21h-48v9l-2 13-3 2-6 2-2 20-2 4-34 1-3 20-4 3-5 1-1 9v88l10 4 2 2 1 20 19 1 5 3v13l-3 7-8 4v18l4 5 5 4 2 7v13l4 2h-2v3l-2 1h-6l-4-4-7-12-4-1-2 3-2-9-6-13-3-12-1-5-3-7-3-3-3-5-4-7v-2l-2-1-1-1-1 67v32l1 37 1 10 1 1h692l8-1 2 1v-2h5v-7h1v10l-1 1-30 2h-670l-10-2-2-4v-246l-1-55v-31z" fill="#9503F7"/>
<path transform="translate(68)" d="m0 0h2v352l1 449h664l145 1-1-45-1-15-1 14-2 9-2 20-2 5-5 2-26 1-57 1-275 1h-303l-56 2h-51l-15-1-6-2-1-8 1-9 1-29v-23l-1-30-1-66v-300l2-32 1-18-1-6v-93l-1-103-1-31 1-24v-11l2-3 4-2h11l7 2 14 2 10 1 34 1v1h-72l-3 1-2 6-1 15v41l1 88v157l-1 19v325l1 42 1 74 1 7 5 3 26 2 647-1 76-1 24-1 4-4 1-247 2-4 1-7 1-15 1-30v-128l-1-84v-162l-1-20-2-17h-1l-1-11-1-42-1-3-3-1-43-1v-1l41-1 4-2h4l3 5 6 27 2 6v-44l2-4h4v803l-69 1h-745l-2-1z" fill="#7804F3"/>
<path transform="translate(125,44)" d="m0 0h706l1 1 1 58 1 101v154l-1 98v255l-1 28-3 15h-1v-25l-1-7v-58l-2-18-3-9-4-4v-6h-3l-2-6v-9l-1-2v-7h-2v-2l-7 2-1 7-2 5-2 8-1 10h-2l1 4-1 11-1 2h-37l-1-2v-65h-16l-6-1-1-4 1-20 1-1h79l3 3 1 5h3v-2h2l1-6 1-1 2-22-1-126-1-27v-13l-1-6v-27l-1-20 1-2-2-1 1-9-1-3 2-11 1-14 1-33v-34l-1-4v-26l2-27v-61l1-35 2-8-4-1h-688l-16 1-2 2v-4z" fill="#7904F4"/>
<path transform="translate(87,12)" d="m0 0h31l98 1h595l50 1 4 2 1 3 1 42 1 9h1l2 19 1 20v180l1 84v110l-1 37-2 11-1 11h-1l-1 224h-1l-1-494v-202l-1-46-1-7-4-1h-595l-85-1h-70l-15 2-6 2-2 4-1 8-1 42v97l1 93v34l-1 53v371l1 56 1 6 35 3 27 2 43 1h601l47-2 22-2 3-7 1-9h1l1 17-5 5-24 1-76 1-649 1-24-2-6-4-1-7-1-74-1-51v-316l1-19v-157l-1-92v-37l1-15 3-7z" fill="#9E02F9"/>
<path transform="translate(582,112)" d="m0 0h62l1 1 1 23 7 1h29v-25h62l2 7v18h9l3 5v19l10 1 2 2 1 24 8-1h15l2 6v19h8l2 1 1 7v49l-1 6-3 1h-7v19l-2 6h-24l2 10 10 2 1 2v33l-3 3-9 1v14l-1 9-2 1h-22l-1 23-1 1-12 1-61-1-2-1-1-22-9-1-1 3-1 21-3 1-71-1-1-1-1-22-22-1-2-1-1-6v-14l-1-3-9-1-2-2v-34l2-3 9-1 1-2v-6l-1-1-21-1-3-2v-23h-10l-2-2v-60l2-2 10-1v-22l2-2 23-1 1-21 2-3 9-1 2-22 1-2 9-1 1-1zm7 7v24h-13l-1 27-3-1h-8l-1 25-24 1-1 23-10 1-2 1v46l2 3 9 1 1 1 1 22 6 2h18v23l-1 1-10 1-1 1v20l2 3 10 1 1 23 2 1 23 1v22l1 1 21 1h39l1-6v-19l25 1 1 22 1 1 12 1h48l1-5v-20h24l1-1v-23h9l3-3v-22l-11-1-1-23 1-1h17l6-1 1-24h11l1-1v-50h-12v-24l-1-1h-23l-1-23-1-2-11-1-1-25-12 1v-25h-49l-1 1v24l-50-1v-23l-1-1z" fill="#02DDF4"/>
<path transform="translate(245,18)" d="m0 0 239 1 39 2 5 1 16 1 2 2-3 2-7-1-2 2 6 2 1 2 9-1 4 1 3-1 4 3-4 2-6-1-8 1h-27l-35 2-25 1-54 1h-171l-30-1-9-1-27-2-3-3 9-3 3-2 2-4 16-3 9-2z" fill="#FA00FA"/>
<path transform="translate(650,557)" d="m0 0h19l6 3 12 14 4 4v2h2l1-22 2-1h29l3 1v91l-1 1h-32l-1-1-2-19-6-9-6-7-3-1 1 35-2 2h-32l-1-1-1-44v-27l1-19z" fill="#FBFCFD"/>
<path transform="translate(304,235)" d="m0 0h31l7 10 7 13 3-4 5-9 6-10h30l2 1v87l-4 1h-28l-1-2v-31l-6 3h-11l-10-4v33l-2 1h-28l-2-1-1-18v-66z" fill="#FAFCFD"/>
<path transform="translate(469,557)" d="m0 0h48l14 1 7 3 4 5 3 9 1 12-3 7-2 5 10 7 2 5v38l-1 1h-32l-1-1v-28h-17l-1 28-1 1h-33l-1-3v-87z" fill="#F8FCFD"/>
<path transform="translate(68)" d="m0 0h2v352l1 449h664l145 1-1-45 1-757h4v803l-69 1h-745l-2-1z" fill="#F9FCFD"/>
<path transform="translate(356,433)" d="m0 0h2l6 10 4 8 3 1 9 1 6 2 9 2 3 1 3 7 3 5 4 10 2 1 2 10 1 16v31l-1 26-2 20-1 3h-2l-2 5-4 11-2 8-5 5-5 3-1 41-3 8-3 1-1 4-3 6-3 9-2 4-3 1h-27l-18-1-18-2-10-2-1 2-8-2-4-5-3-6-6-5-2-2-5-2-3 1-2 4-4 3h-2v2h-2l-1 5-4 7h-2v2l-2 1h-14l-10 2h-15l-10-2-1-2-14-1-6-4v-3h67l1-23 3-2 9-1v-48l1-1h24l2 2 1 47 9 2 2 2 1 4v17h72v-16l2-5 5-4 4-2v-20l-9-3-1-2-1-9v-10l3-3 18-1 3-1 1-16 2-5 9-4 1-15v-81l-10-3-1-2-1-20-34-1-2-1z" fill="#7704F3"/>
<path transform="translate(109,14)" d="m0 0h70l85 1v1l-103 1-44 1-15 2-8 3-6 9-1 5-1 24-1 47v47l1 60 1 25v111l-1 11-1 28v22l1 21v9l1 14v13l1 17-1 53v98l-2 65 1 56 2 11 3 6 11 4 22 1 13 1 16 2 3 1 1-2 5 1 9 1 11 1h181l312 1h95l27-1h22l21-2 13-3 8-7 2-4 1-18v-111l-1-39v-187l1-239 1-105h1v699l-2 13-3 4-39 3-43 1h-600l-33-1-25-2-32-3-3-1-2-6-1-56v-374l1-63v-37l-1-77v-99l1-40 1-8 3-5 11-3z" fill="#D400F8"/>
<path transform="translate(243,234)" d="m0 0 31 1 5 5 8 19 5 14 2 9 1 40-4 2h-28l-2-2v-14l1-5h-17v20l-1 1h-28l-3-1-1-2v-40l4-15 6-15 6-12 4-4z" fill="#F8FCFD"/>
<path transform="translate(565,557)" d="m0 0h62l7 1 1 1v22l-3 1-36 1v8h27l2 3v11l-1 9-3 1-25 1v8l24 1h11l4 2 1 5-1 17-1 1h-72l-1-1-1-17v-73z" fill="#F7FCFD"/>
<path transform="translate(217,397)" d="m0 0 10 1 1-1h7l6 4-2 2 7 3 6 3 5 5v2h7l16-6 4-3h3v-2h2v-4h4 9l2 1 6-2 4-1h12l7-2 9 3v3l5 1 1 2 4 2 8 16 8 12 2 2v3l8 4v2l13 1 2 4 7 3 2 5 3 3 3 5 4 8v6l4 7 2 16v32l-1 31-2 9-1 10-3 6-3 3-11 22-5 11h-2l1 4-1 3-1 13h-1v-31l6-3h2l2-4 4-14 5-10h2l1-15 1-13 1-26v-33l-2-15-1-2 1-2-3-1-5-11-4-9v-2l-12-2-6-2-11-1-4-5-3-7-4-6v-2h-2l1 3v21h-1l-1-23-9-2-2-5-1-17-47-1v24l-1 1h-49l-2-4v-21h-48v9l-2 13-3 2-6 2-2 20-2 4-34 1-3 20-4 3h-5l4-2h2l3-14-5 2-3 3-7 1v2h-2l-1 3h-2l-3 9-3 1v-38l1 2 5-2h4l4-6h7l5 2v2h9l8-3h3v-2l3-2 2-5 2-16 5-5h4v-2h2l-1-4 1-3 8-7h4 10l4-1h8z" fill="#7704F3"/>
<path transform="translate(152,235)" d="m0 0h43l3 2v21l-1 1-7 1-28 1v38h10l1-21 6-2 26 1 1 1v43l-2 3h-50l-12-2-8-4-4-5-3-9-1-9v-34l2-10 6-9 8-5z" fill="#F6FCFD"/>
<path transform="translate(407,235)" d="m0 0h67l3 3v17l-1 3-3 1-33 1-1 1v5l1 1 26 1 1 2v19l-1 1-24 1-3 1 1 7 34 1 2 1v22l-3 1h-66l-2-2v-85z" fill="#F6FCFD"/>
<path transform="translate(832,47)" d="m0 0h1l2 63v36l1 29 1 12 1 8 1 14v21l2 13v9l1 2 2 17 2 6v7l1 10v11l1 5-1 16 1 20v41l1 29 1 10-1 9v22l-2 21-2 7-4 28-1 8-2-1-1 6-1 4 1 3h-2l2 9-1 2-1 12h2l2 20 1 5-2 6v7l3 1v36l-1 6h-2l2 2v16l-2 1-1 10-1 2v71l-2 8-2 10h-3l1-14 1-4 1-34v-254l1-100v-163l-1-89z" fill="#D400F8"/>
<path transform="translate(735,557)" d="m0 0h79l2 1v22l-3 2h-20v67l-1 1h-35l-1-2v-65h-16l-6-1-1-4 1-20z" fill="#F6FCFD"/>
<path transform="translate(81,357)" d="m0 0h1v88l2 1v275l1 56 1 6 35 3 27 2 43 1h601l47-2 22-2 3-7 1-9h1l1 17-5 5-24 1-76 1-649 1-24-2-6-4-1-7-1-74-1-51v-298z" fill="#B202FD"/>
<path transform="translate(575,144)" d="m0 0h1v24l-1 2-11-1v25l-1 1h-24v23l-1 1-12 1 1 46 1 2 9 1 2 2 1 22 7 1h16l1 1v23l-2 2-10 1v20l1 2 10 1 1 1v23l23 1 2 1 1 22 21 1 39 1 1-25h23l2 1 1 5 1 17 12 1 48 1v-12l1-13h24l-2 2-15 1-6-2v23l-1 2-40 1-8 1 33 1 1 2h-54l-2-1-1-22-9-1-1 3-1 21-3 1-71-1-1-1-1-22-22-1-2-1-1-6v-14l-1-3-9-1-2-2v-34l2-3 9-1 1-2v-6l-1-1-21-1-3-2v-23h-10l-2-2v-60l2-2 10-1v-22l2-2 23-1 1-21 2 2 1 5v7 1l1 6v-12l2-6 4-2 6 1 1-1z" fill="#08CEF3"/>
<path transform="translate(114,33)" d="m0 0 7 1 3 2-3 3-2 9-2 3-1 13v68l-1 41-1 9-2 1-3 6-10 9v3h-2l-1 5-3 2-2-12-1-3 1-3-1-9v-84l3-26 2-3 6-2 2-10-1-4v-7l4-6 1-4z" fill="#FA00FA"/>
<path transform="translate(68)" d="m0 0h2v352l1 449h664l78 1v1l-743 1-2-1z" fill="#4DEAF7"/>
<path transform="translate(119,565)" d="m0 0 4 2 2 11 2 5v3l2 1 5 4 3 3 1 7h2l3 3v-19l3 2 1 20 19 1 5 3v13l-3 7-8 4v18l4 5 5 4 2 7v13l4 2h-2v3l-2 1h-6l-4-4-7-12-4-1-2 3-2-9-6-13-3-12-1-5-3-7-3-3-3-5-4-7v-2l-2-1-1-1v13h-1z" fill="#7704F3"/>
<path transform="translate(356,433)" d="m0 0h2l6 10 4 8 3 1 9 1 6 2 9 2 3 1 3 7 3 5 4 10 2 1 2 10 1 16v31l-1 26-2 20-1 3h-2l-2 5-4 11-2 8-5 5-5 3-1 30-3 14-5 5h-3l-1 10-3 7-3 2-6-2 4-2v-17l2-5 5-4 4-2v-20l-9-3-1-2-1-9v-10l3-3 18-1 3-1 1-16 2-5 9-4 1-15v-81l-10-3-1-2-1-20-34-1-2-1z" fill="#8D04F6"/>
<path transform="translate(125,44)" d="m0 0h706l1 1 1 58 1 101v154l-1 98v255l-1 28-2 4v-20l1-23v-105l-1-16v-164l1-83v-15l-1-40v-29l1-38v-93l-1-70-4-1h-688l-16 1-2 2v-4z" fill="#9802F9"/>
<path transform="translate(116,749)" d="m0 0 2 1 1 7 10 2h670l12-1h18l-3 3-27 3-26-1h-399l-65-1h-89l-26 1-19 1-4 1-16-1-14 1-4 1-9-1-8-3-3-2-1-4z" fill="#D400F8"/>
<path transform="translate(198,239)" d="m0 0 2 4 1 3 6-2h8l4 2v2h2l1 5-7 20-3 16-1 34-7 2 1-5v-42l-26-1-5 1-1 21-1 1h-10l-1-1v-38l1-1 28-1 7-1z" fill="#7804F3"/>
<path transform="translate(87,12)" d="m0 0h31l98 1 571 1v1h-678l-15 2-6 2-2 4-1 8-1 42v97l1 93v34l-1 53-1 95h-1l-1-88-1-1v-16l1-19v-157l-1-92v-37l1-15 3-7z" fill="#8D03F7"/>
<path transform="translate(257,608)" d="m0 0h24l2 2 1 47 9 2 2 2 1 4 1 18 1 2-3 2h-6l-1-1-2-18h-2l-5-5-2-7-4-21-3-5-3 7-1 7-2 12-3 7h-2v2l-5 3-4 16-2 3-5-1-5-2v-1h5l1-23 3-2 9-1v-48z" fill="#9203F7"/>
<path transform="translate(576,317)" d="m0 0h12l12 1 2 2 1 5 1 17h30l4 2 1 2 1 21-1 1-18 1-19-1-1-1-1-23h-15l-8-1-1-1-1-23z" fill="#F600FA"/>
<path transform="translate(633,557)" d="m0 0h8l1 2v90l-8 1 1-19-1-4-3-1h-15l-20-1-1-1v-8l1-1 28-1v-20l-1-2-27-1-1-2v-6l1-1 39-1-1-22z" fill="#7904F3"/>
<path transform="translate(725,557)" d="m0 0h7l1 4-1 20 4 1v2h8v2l5-2v2l2 1 3 5v21l-2-4-1-1-2 12-3 22-1 3-6-2-2-1v-2h-2l-2 8-3 2-3-1 1-91z" fill="#7804F3"/>
<path transform="translate(724,21)" d="m0 0h47 2l20 2-3 5 8 1 7 2-2 4-1 1h-103l-12-1 1-5h9l2 1 1-2h9l-3-3-3-2 8-1h16z" fill="#FA00FA"/>
<path transform="translate(298,232)" d="m0 0h6l-1 7v66l1 19-7 2h-4v-2l-2-1 3-1-1-40-3-11-8-22-6-12-2-2 5 1 8 2h5l1-2h2v-3z" fill="#7306F2"/>
<path transform="translate(829,747)" d="m0 0h1v10l-1 1-30 2h-308v-2h-116v-1l439-1 8-1 2 1v-2h5z" fill="#9302F8"/>
<path transform="translate(397,597)" d="m0 0 2 1 1 11-4 6-7 4-1 30-3 14-5 5h-3l-1 10-3 7-3 2-6-2 4-2v-17l2-5 5-4 4-2v-20l-9-3-1-2-1-9v-10l1-2 21-1 3-1 3-5z" fill="#9602F8"/>
<path transform="translate(575,144)" d="m0 0h1v24l-1 2-11-1v25l-1 1h-24v23l-1 1-12 1 1 46 1 2 9 1v2l-14 1-1-1-2 4-1-1v-60l2-2 10-1v-22l2-2 23-1 1-21 2 2 1 5v7 1l1 6v-12l2-6 4-2 6 1 1-1z" fill="#0FC0F3"/>
<path transform="translate(477,238)" d="m0 0 3 4 1 4-2 1v10l-2 5 2 2 2 7-2 9-3 17-2 3h-34l-2-3v-5l6-2 22-1v-21h-26l-2-2v-5l2-2 36-1z" fill="#7904F4"/>
<path transform="translate(81,357)" d="m0 0h1v88l2 1v197l-1 8-1 56h-1l-1-51v-298z" fill="#A302FA"/>
<path transform="translate(689,342)" d="m0 0h26l10 1 2 2v23l-6 1h-13l-18-1-2-2v-23z" fill="#E301F9"/>
<path transform="translate(531,558)" d="m0 0h7l3 1 1 3 2-2h9l3 3 2-4 1 47v43l-3 2h-4v-40l-2-5-10-7 4-8 1-9-2-11-4-8-4-3z" fill="#9B01F9"/>
<path transform="translate(83,782)" d="m0 0 6 4 12 2 12 1 34 1 20 1h192l403 1v1l-649 1-24-2-6-4z" fill="#9B02F9"/>
<path transform="translate(118,754)" d="m0 0 2 2h33l222 1 116 1v2h-362l-10-2z" fill="#9E02F9"/>
<path transform="translate(565,557)" d="m0 0h62v1l-57 1-1 7-1 83h66v1h-72l-1-1-1-17v-73z" fill="#00FAFD"/>
<path transform="translate(781,317)" d="m0 0h1v29l-2 5-9 1v14l-1 9-2 1h-22l-1 23-1 1-12 1-7-1-1-1-34-1 1-2 8-1h40l1-25h6v2l15-2h2l1-25 11-1 1-7 1-17 2-1z" fill="#00FBFD"/>
<path transform="translate(522,270)" d="m0 0 1 2 15-2 1 1 1 22 7 1h16l-1 24h-11l-1 28 4 2 1 2h-8l-3-1v-34l2-3 9-1 1-2v-6l-1-1-21-1-3-2v-23h-10v-5z" fill="#00FAFD"/>
<path transform="translate(469,557)" d="m0 0h48v1h-42l-1 91 4 1h-11l-1-3v-87z" fill="#00F9FD"/>
<path transform="translate(582,112)" d="m0 0h62v26l-2 4-2-2v-23h-2v-2l-21 1-27-1v2h-2v26l-12 1-1 22-2 2-6-1-4 1-1 13v5l-2 1-2-4v-5h1l-1-15 1-1 9-1 2-22 1-2 9-1 1-1z" fill="#00FAFD"/>
<path transform="translate(726,293)" d="m0 0 2 1 1 23h9l10 1 4 3 1 3v10l-2 8-6 2h-14l-4-2-1-2-1-21h-19l-4-2 2-1 22 1z" fill="#F600FA"/>
<path transform="translate(650,557)" d="m0 0h19v1l-17 1-1 14-1 76h26v1h-32l-1-1-1-44v-27l1-19z" fill="#00F5FB"/>
<path transform="translate(232,235)" d="m0 0h6l-4 11-7 17-5 17-2 14-2 21 1 7 25 1v1h-28l-3-1-1-2v-40l4-15 6-15 6-12z" fill="#00F7FC"/>
<path transform="translate(410,482)" d="m0 0h2l4 7 2 16v32l-1 31-2 9-1 10-3 6-3 3-11 22-5 11h-2l1 4-1 3-1 13h-1v-31l6-3h2l2-4 4-14 5-10h2l1-15 1-13 1-26v-33l-2-15z" fill="#7904F4"/>
<path transform="translate(407,235)" d="m0 0h14v1l-7 1-1 7v79h60v1h-66l-2-2v-85z" fill="#00E3F5"/>
<path transform="translate(229,432)" d="m0 0 3 1 1 25v25l-2-1v-14l-1-9h-21l-2-1-1-8v-15l1-2z" fill="#00FBFD"/>
<path transform="translate(220,507)" d="m0 0h23l2 1v25h-25l-1-3v-22z" fill="#0C051C"/>
<path transform="translate(306,433)" d="m0 0h25l1 1v24l-1 1h-26z" fill="#0ADEFA"/>
<path transform="translate(304,235)" d="m0 0h12v1l-5 1-1 19v67h23v1h-28l-2-1-1-18v-66z" fill="#00F9FD"/>
<path transform="translate(295,508)" d="m0 0h24v24l-1 1h-23z" fill="#040404"/>
<path transform="translate(734,558)" d="m0 0 2 4 4 13 3 4v2l17 1 2 2 1 10 1 48 1 8h-8l-1-2v-65h-16l-6-1-1-4z" fill="#00FAFD"/>
<path transform="translate(397,233)" d="m0 0m-1 1 6 2 1 2v54l-4 21-1 5h-1l-1 5h-1v-87l-2-1z" fill="#D300F8"/>
<path transform="translate(690,193)" d="m0 0h23l1 3-1 21-1 1h-16l-6-2z" fill="#040404"/>
<path transform="translate(146,236)" d="m0 0 3 1-6 4-5 8-3 8-1 11v37l2 7 4 7 2 2-5-1-6-5-4-11-1-9v-34l2-10 6-9 8-5z" fill="#00F4FB"/>
<path transform="translate(615,193)" d="m0 0h23v24l-1 1h-12l-9-1-1-1z" fill="#040404"/>
<path transform="translate(335,290)" d="m0 0 10 3 9 1 3 4 1 11-3 9-7 1v-2h-6l-3 4h-2v2h-2z" fill="#7704F3"/>
<path transform="translate(577,319)" d="m0 0h21l3 2v20l-1 1h-22l-1-1z" fill="#F900FA"/>
<path transform="translate(683,113)" d="m0 0h62l1 6v15l-5 5h-1v-18l-2-6-11 1h-31l-6-1-1 3-1 25h-41v-3l3-1h33z" fill="#00FBFD"/>
<path transform="translate(87,12)" d="m0 0h31l98 1 35 1v1h-142l-15 2-6 2-2 4-1 8-1 42-2 10h-1l-1-11v-37l1-15 3-7z" fill="#9902F8"/>
<path transform="translate(575,144)" d="m0 0h1v24l-1 2-11-1v25l-1 1h-25v15l-2 4-4 2-1-27 2-2 23-1 1-21 2 2 1 5v7 1l1 6v-12l2-6 4-2 6 1 1-1z" fill="#08CFF3"/>
<path transform="translate(285,249)" d="m0 0 1 2 6 1 7 8 1 3v54l-5 2h-1l-1-37-3-11-6-17z" fill="#B801FC"/>
<path transform="translate(677,613)" d="m0 0 4 1 8 9 3 5 1 24-7 1h-5l-5-3 1-6z" fill="#7904F3"/>
<path transform="translate(831,362)" d="m0 0h1v127l1 54v168l-1 28-2 4v-20l1-23v-105l-1-16v-164z" fill="#A202FA"/>
<path transform="translate(375,757)" d="m0 0h278v1h-74v2h-88v-2h-116z" fill="#8603F6"/>
<path transform="translate(606,141)" d="m0 0 19 1 2 2v23h-1l-1-22-2-1-21-1v50l-3 1-21 1-1 23-1 1h-24v47l23 1 1 1 2 23-2 1-1-4-1-19-22-1-2-2v-46l2-3h23v-21l2-4h23v-49z" fill="#750AF0"/>
<path transform="translate(131,490)" d="m0 0h1v75l-2 7h-1l-2-8-1-17-1-9 1-20 1-19 2-8z" fill="#B301FD"/>
<path transform="translate(750,138)" d="m0 0h6l2 4v19l10 1 2 2v25h8l-2 2-4 1-1 1h-6v-25h-13v-26h-4v-3z" fill="#00E3F5"/>
<path transform="translate(119,49)" d="m0 0h1v194l1 15v20l-1 23h-1l-1-28-1-48v-80l1-68z" fill="#9302F8"/>
<path transform="translate(502,620)" d="m0 0h10l2 4 1 5-1 18-2 3-7 1-5-1 1-29z" fill="#7C03F4"/>
<path transform="translate(702,142)" d="m0 0h24l1 1 1 16v33l21 1 2 1-1 2h-10l-4 2-9-2-3-3 1-8 1-40h-12l-9 4-2-1v14l-1 6h-75v-1h74l-1-22z" fill="#8309F0"/>
<path transform="translate(535,44)" d="m0 0h296l1 1 1 57-1 15h-1l-1-70-4-1-291-1z" fill="#9A02F8"/>
<path transform="translate(523,274)" d="m0 0h10l1 5-1 19 5 1 19 1 2 5-2 11-6 2-1 28 4 2 1 2h-8l-3-1v-34l2-3 9-1 1-2v-6l-1-1-21-1-3-2v-23h-10z" fill="#00E3F5"/>
<path transform="translate(152,609)" d="m0 0h12l7 2v13l-3 7-8 4h-2v4h-2l-1-5 2-8-1-9-4-2-2-4h2z" fill="#9203F7"/>
<path transform="translate(563,295)" d="m0 0h1v23l-2 2-10 1v20l1 2 10 1 1 1v23l23 1 2 1 1 23h-2l-1-22-23 1-3-4v-13l-2 3v17h-2l-1-6v-14l-1-3-9-1-1-2h8l-3-3-1-6 1-23 12 1v-21z" fill="#05D5F4"/>
<path transform="translate(260,609)" d="m0 0h18l4 2v38l-3-2-3-16-2-11-4-4h-4l-7 1v26h-1v-32h2z" fill="#AA02FC"/>
<path transform="translate(118,754)" d="m0 0 2 2h33l113 1-1 2-12 1h-124l-10-2z" fill="#9F02F9"/>
<path transform="translate(739,369)" d="m0 0h24l-2 2-15 1-6-2v23l-1 2-40 1-8 1 33 1 1 2h-51l1-3-1-5 1-1 1-16h1l1 17 12 1 48 1v-12z" fill="#0AC9F3"/>
<path transform="translate(690,115)" d="m0 0h48l3 7v15l5-2v2h9v1l-7 1v3h4v26h-1l-1-24h-11v-25l-49 1-1 18h-1v-20z" fill="#07D1F4"/>
<path transform="translate(560,353)" d="m0 0 2 2v13l2 3h23l1 2v25l-6 1-1-22-22-1-1-2v-16z" fill="#00F7FC"/>
<path transform="translate(576,317)" d="m0 0h12l12 1 2 2 1 5 1 17h30l4 2 1 2 1 21-1 1-18 1-19-1-1-1-1-23h-15l-8-1-1-1-1-23zm1 2v22l1 1h22l1-1v-20l-3-2zm25 25v22l1 1h34l1-1v-20l-3-2z" fill="#7A08F2"/>
<path transform="translate(781,317)" d="m0 0h1v29l-2 5-9 1v14l-1 9h-2v-7l1-4h-2l-1-12 1-2h3l2-4h-7v23l-2-1 1-23 11-1 1-7 1-17 2-1z" fill="#01F4FC"/>
<path transform="translate(865,769)" d="m0 0h1l1 17-5 5-24 1h-47l2-3 46-2 22-2 3-7z" fill="#AE02FD"/>
<path transform="translate(677,608)" d="m0 0 8 4 7 7 7 10 2 5 1 15h25v1h-32l-1-1-2-19-6-9-6-7-3-1z" fill="#00FAFD"/>
<path transform="translate(725,557)" d="m0 0h7l1 4v28l-1 8-1 40-2 13-2-1 1-91z" fill="#B401F8"/>
<path transform="translate(81,561)" d="m0 0 2 2v88l-1 56h-1l-1-51v-94z" fill="#9B02F9"/>
<path transform="translate(765,294)" d="m0 0h15l-3 2h-12l1 5 4-1 1 9 1 2 10 2 1 2v33l-1 2-2-1 1-3v-28l-1 3h-2l-1 16h-1v-17h-11l-1-1-1-23z" fill="#0EC2F3"/>
<path transform="translate(293,415)" d="m0 0h1v18h-48l-1-4v-11l5 3v2l5 2 2 3 4 1 3 1h19l6-7 3-4z" fill="#9D01F9"/>
<path transform="translate(565,557)" d="m0 0h62v1l-63 1-1 10-1 1v56l1 8v12l2 2 2-7h1v8h66v1h-72l-1-1-1-17v-73z" fill="#00E3F5"/>
<path transform="translate(356,433)" d="m0 0h2l6 10 4 8 3 1 9 1 6 2 9 2v1h-38z" fill="#9B02F9"/>
<path transform="translate(296,406)" d="m0 0h39l11 1 1 4h2l3 4 1 9 3 9-11-2-1-4-1-19h-48z" fill="#9203F7"/>
<path transform="translate(632,187)" d="m0 0h8v32h-26v-2h-3l1-21 1-5 10-1 3-2zm-17 6v23l1 1 9 1h12l1-1v-24z" fill="#C303F6"/>
<path transform="translate(363,286)" d="m0 0 5 1 1 22 1 10 1 3 20 1v1h-28l-1-2v-31l-2-1z" fill="#00F5FB"/>
<path transform="translate(409,237)" d="m0 0h5l-1 7-1 78-3 1-1-80z" fill="#00FBFD"/>
<path transform="translate(116,170)" d="m0 0h1l2 103v29l-1 67h-1v-76l-1-7z" fill="#CC00F9"/>
<path transform="translate(590,115)" d="m0 0h48v2h2v23l-2 3v-23l-49-1v24h-1v-26h2z" fill="#13B3F2"/>
<path transform="translate(531,558)" d="m0 0h7l3 1 1 3 2-2h9l3 3 2-4v32h-1v-6h-2l-2-10-2-3-8-1-4-8-4-3z" fill="#7903F4"/>
<path transform="translate(399,232)" d="m0 0h6l-1 93-2-2-4 2-7-1v-1h5v-6l2-2 2-13 2-10v-56l-5-1z" fill="#9B02F9"/>
<path transform="translate(653,371)" d="m0 0 7 2-3 1-1 23-2 2-44-1 3-2 2-1 37-1v-19z" fill="#00FBFD"/>
<path transform="translate(688,191)" d="m0 0h22l5 2v27l-5 1h-13l-9-1-1-3v-14zm2 2v23l6 2h16l1-1 1-23-1-1z" fill="#B503F6"/>
<path transform="translate(734,558)" d="m0 0 2 4 4 13 3 4v2l17 1-1 15h-2l1 46 1 4-2 3-1-2v-65h-16l-6-1-1-4z" fill="#00E3F5"/>
<path transform="translate(208,277)" d="m0 0 3 1v45l-7 2 1-5 1-42z" fill="#8003F4"/>
<path transform="translate(752,168)" d="m0 0h13v25l7-2 5-1-7-1-1-6 2 2v3l8-1h15l-2 2v2l-1 18-1 9h-1l-1-23h-23l-1-1-1-25h-11z" fill="#0EC0F3"/>
<path transform="translate(118,48)" d="m0 0h1v29l-1 68h-1l-1-13-1-6v-67l2-10z" fill="#E000F8"/>
<path transform="translate(82,314)" d="m0 0h2v36l-1 95h-1l-1-88-1-1v-16l1-19z" fill="#A802FB"/>
<path transform="translate(666,371)" d="m0 0h10v20l-1 4 1 3-2 2-5-1-1-22-8-2 1-2z" fill="#00F1FA"/>
<path transform="translate(793,285)" d="m0 0 2 3 1 7-2 6h-27l-2 3v-8l12-1h13l2-9z" fill="#00FBFD"/>
<path transform="translate(598,113)" d="m0 0h46v25l-2 4-2-2v-23h-2v-2l-21 1-20-1z" fill="#00FCFE"/>
<path transform="translate(625,145)" d="m0 0h1l1 22 72 1v1l-18 1-37 1-1 1h-14l-5-4-1-4z" fill="#C300F8"/>
<path transform="translate(696,557)" d="m0 0h29v1h-24l-2 28-3 1-3-6 1-23z" fill="#00FAFD"/>
<path transform="translate(469,557)" d="m0 0h48v1h-42v14h-1v-13h-5v8h-1v78l2 2-1 1 9 1v1h-11l-1-3v-87z" fill="#00E3F5"/>
<path transform="translate(397,233)" d="m0 0m-1 1 6 2 1 2v54l-4 21-1 5h-1l-1 5h-1v-12l5-21 1-9v-37l-4-5h-2v-3l-2-1z" fill="#B401FD"/>
<path transform="translate(118,633)" d="m0 0h1v75l1 37 1 10 1 2-3-1v-2h-2v-84z" fill="#9502F8"/>
<path transform="translate(285,249)" d="m0 0 1 2 6 1 7 8 1 3v11l-2-4-6-4-1 2h-2l-5-14z" fill="#9D01F9"/>
<path transform="translate(764,162)" d="m0 0 5 1 1 1v25h8l-2 2-4 1-1 1h-6v-25l-4-2v-2z" fill="#00F9FC"/>
<path transform="translate(550,314)" d="m0 0h2l1 4h-2l-1 28 4 2 1 2h-8l-2-1v-27l2-4 1-3z" fill="#00FCFE"/>
<path transform="translate(788,15)" d="m0 0h71l5 2v6l-2-4-1-1h-31l-37-1h-18v-1z" fill="#D400F8"/>
<path transform="translate(336,234)" d="m0 0 13 4 3 6v8l-5 2-4-5-8-14z" fill="#7904F3"/>
<path transform="translate(545,587)" d="m0 0 3 1 3 10 2 5 2 3-1 39h-1l-1-34-2-5-10-7 4-8z" fill="#BE01FB"/>
<path transform="translate(789,270)" d="m0 0h12v1h-11l2 4h4l1-3v2l6 1v1h-7v15l-2-3-1-2-3 9h-8v-1h6v-22z" fill="#0FBDF3"/>
<path transform="translate(522,231)" d="m0 0 2 4v10h2v19l-4 5-1-3-1-11v-20z" fill="#00F6FC"/>
<path transform="translate(677,614)" d="m0 0 2 3v2l5 2 3 3-3 10-3 6h-2l-1 4h-1z" fill="#A401F9"/>
<path transform="translate(275,609)" d="m0 0 6 1 1 1v38h-1l-4-26-2-6-3-7z" fill="#D300F8"/>
<path transform="translate(300,274)" d="m0 0h1l3 50-7 2h-4v-2l-2-1 3-1 2-4 4-1-1-3z" fill="#7505F2"/>
<path transform="translate(245,303)" d="m0 0 5 2 2 4v3h2l1 4-5 9h-6z" fill="#7904F4"/>
<path transform="translate(671,556)" d="m0 0 5 2 11 5 5 6 1 11h-2l-7-8-10-12-5-2z" fill="#7B03F4"/>
<path transform="translate(829,747)" d="m0 0h1v10l-1 1-30 2h-46v-2l57-1 4-1 8-1 2 1v-2h5z" fill="#9702F8"/>
<path transform="translate(773,344)" d="m0 0h2l1 3h-2v2l6 1v1l-9 1v14l-1 9h-2v-7l1-4h-2l-1-12 1-2h3l2-4h-7v23l-2-1 1-23z" fill="#02DDF4"/>
<path transform="translate(371,611)" d="m0 0h5l2 3-2 6 3 4-1 7 5 2v2h-2v-2h-8l-3-1v-8l4-7h-3l-1-4z" fill="#AA02FC"/>
<path transform="translate(519,621)" d="m0 0 4 4 2 18 1 6 3 1h-9l-1-1z" fill="#00F1FA"/>
<path transform="translate(739,113)" d="m0 0h6l1 6v15l-5 5h-1v-18l-2-4z" fill="#00F5FB"/>
<path transform="translate(252,262)" d="m0 0h3l4 12 1 2-1 3-3 1h-7l-1-1 1-10z" fill="#8103F5"/>
<path transform="translate(340,757)" d="m0 0h35l18 1v2h-48l-5-2z" fill="#9602F8"/>
<path transform="translate(533,189)" d="m0 0h9l1 2h-3v2h-2v17l-2 4-4 2z" fill="#00FAFD"/>
<path transform="translate(802,219)" d="m0 0 4 2v38l-2-4-2-3z" fill="#00FBFD"/>
<path transform="translate(363,235)" d="m0 0h30v1h-26l-1 4-6 10-3 1-2 4-5 6-2-1 1-2 3-4 5-9z" fill="#00EBF8"/>
<path transform="translate(582,112)" d="m0 0h62v1l-13 1h-47l-1 24-4 1h-8v-2l9-1 1-1z" fill="#00E3F5"/>
<path transform="translate(332,606)" d="m0 0h1l1 26 23 1 1 23-3 2h-46v-1l45-1 1-1 1-21h-24z" fill="#228FF0"/>
<path transform="translate(637,559)" d="m0 0 4 3v18l-2 2h-7l3-1v-21z" fill="#9B02F9"/>
<path transform="translate(504,581)" d="m0 0 6 1 1 2v10l-3 2h-5l-2-4 1-10z" fill="#7C03F4"/>
<path transform="translate(563,345)" d="m0 0h1v23l23 1 2 1 1 23h-2l-1-22-23 1-3-4z" fill="#2B7AEF"/>
<path transform="translate(726,293)" d="m0 0 2 1 1 24-1 1 1 22 1 2-3-1-1-2-1-21h-19l-4-2 2-1 22 1z" fill="#7709F1"/>
<path transform="translate(304,235)" d="m0 0h12v1l-11 1-1 5v49l1 32h-2l-1-18v-66z" fill="#00E3F5"/>
<path transform="translate(644,113)" d="m0 0h1l1 23 6 2-4 2-1 2 41 1-1-4 2-1v6h-50v-4l3 1 1-3z" fill="#03DAF4"/>
<path transform="translate(677,608)" d="m0 0 7 3-2 1 11 14 1 1 2 22h31v1h-32l-1-1-2-19-6-9-6-7-3-1z" fill="#00E3F5"/>
<path transform="translate(396,241)" d="m0 0 2 2 1 11v17l-1 17-1 6h-1z" fill="#E500F9"/>
<path transform="translate(262,303)" d="m0 0 2 1 1 10 5 7v2h21v1h-28l-2-2v-14z" fill="#00E3F5"/>
<path transform="translate(310,684)" d="m0 0h43v2l-17 1h-23l-3-1z" fill="#9B02F9"/>
<path transform="translate(231,433)" d="m0 0h1l1 25v25l-2-1v-14l-1-9h-21l-2-2 5-1h17l1-2z" fill="#2193F0"/>
<path transform="translate(214,273)" d="m0 0h1l-1 9v37h2v-7l2 3 1 7 25 1v1h-28l-3-1-1-2v-40z" fill="#00E3F5"/>
<path transform="translate(756,582)" d="m0 0 4 1-1 14h-2l1 46 1 4-2 3-1-2z" fill="#00E3F5"/>
<path transform="translate(408,493)" d="m0 0 2 2 1 31-1 22-2-1z" fill="#B701FD"/>
<path transform="translate(189,267)" d="m0 0 9 5 4 1v2l-6 1-18 1-3-2h6v-2h4v-3z" fill="#5811EA"/>
<path transform="translate(656,31)" d="m0 0h16l1 1v-1h10l2 4h-30z" fill="#FA00FA"/>
<path transform="translate(270,610)" d="m0 0 3 1 4 7 2 10 2 14v6l-2-1-3-16-2-11-4-4-3-1 1-3z" fill="#B302FE"/>
<path transform="translate(651,369)" d="m0 0h23l2 2-10 1-6 2-7-3-1 23h-2zm6 5 3 1-3 1z" fill="#19A6F1"/>
<path transform="translate(744,135)" d="m0 0h2v2h9v1l-7 1v3h4v26h-1l-1-24h-11v-5h2l1-2z" fill="#1E99F1"/>
<path transform="translate(788,188)" d="m0 0h6l1 18v8l-3 4h-2l1-24 1-3-4-2z" fill="#00FCFE"/>
<path transform="translate(208,277)" d="m0 0 3 1v9l-2 11h-2v14h-1v-34z" fill="#9E02F9"/>
<path transform="translate(750,267)" d="m0 0h25v1h-23v25h-24v-1l22-1z" fill="#840AEF"/>
<path transform="translate(702,142)" d="m0 0h24v3h-12l-9 4-2-1v14h-1z" fill="#C601F7"/>
<path transform="translate(750,138)" d="m0 0h6l1 11v9l-4 3-1-19h-4v-3z" fill="#00FAFD"/>
<path transform="translate(194,411)" d="m0 0h1v16l-2 5h-8l1-2h2l-1-3 2-6h2z" fill="#8F04F6"/>
<path transform="translate(96,14)" d="m0 0h13v1l-15 2-6 2-2 4-1 8-1 40h-1l-1-12 1-32 2-8 6-4z" fill="#B302FE"/>
<path transform="translate(794,583)" d="m0 0h14l2 2-1 4-2 3h-7l-3-7z" fill="#5811EA"/>
<path transform="translate(349,418)" d="m0 0 3 2 4 11v2l-10-2v-12z" fill="#D200F8"/>
<path transform="translate(229,432)" d="m0 0 1 2-17 2-4-1v11l-1 10h-1l-1-6v-15l1-2z" fill="#10BBF2"/>
<path transform="translate(731,317)" d="m0 0 17 1 4 3 1 3v10l-2 8-6 2h-14v-1l17-1 2-4v-16l-4-2-15-2z" fill="#740AF0"/>
<path transform="translate(614,193)" d="m0 0h1l1 23 9 1h12l1-24h1v26h-25z" fill="#640DEC"/>
<path transform="translate(399,232)" d="m0 0h6l-1 62h-1l-1-58-5-1z" fill="#7904F4"/>
<path transform="translate(660,374)" d="m0 0h12v20l-1 3 3 3-5-1-1-22-8-2z" fill="#00E3F5"/>
<path transform="translate(387,649)" d="m0 0h1v11l-3 8-3 1-1 4-3 5h-2v-8l1-2 5-3 3-5z" fill="#7904F4"/>
<path transform="translate(739,369)" d="m0 0h24l-2 2-15 1-6-2v23l-1 2h-6v-1h5v-12z" fill="#17AAF2"/>
<path transform="translate(397,233)" d="m0 0m-1 1 6 2 1 2v43h-1l-1-37-4-5h-2v-3l-2-1z" fill="#B302FE"/>
<path transform="translate(696,557)" d="m0 0h29v1l-30 1 1 20 1 3 2-3v7l-3 1-3-6 1-23z" fill="#00E3F5"/>
<path transform="translate(179,276)" d="m0 0 20 1v1h-15l-8 1v12l-2 8h-1v-21z" fill="#00E6F6"/>
<path transform="translate(831,181)" d="m0 0 2 1 1 13v18l-3-3z" fill="#A202FA"/>
<path transform="translate(689,193)" d="m0 0h1l1 23 5 1h16l1-21h1v23h-24l-1-1z" fill="#630DED"/>
<path transform="translate(307,433)" d="m0 0h24l-2 2h-19v11l-2 6h-1z" fill="#00E3F5"/>
<path transform="translate(520,263)" d="m0 0 3 3 3-2 2 4 9 1v2l-14 1-1-1-2 4-1-1v-10z" fill="#0DC2F3"/>
<path transform="translate(575,144)" d="m0 0h1v24l-1 2-11-1v25h-1v-26l4-2 6 1 1-1z" fill="#2193F0"/>
<path transform="translate(559,164)" d="m0 0h8l-1 4h-3l-1 13v5l-2 1-2-4v-5h1l-1-13z" fill="#00FBFD"/>
<path transform="translate(557,599)" d="m0 0h1l1 7v43l-3 2h-4v-2h2l1-3 2-2z" fill="#7903F4"/>
<path transform="translate(396,465)" d="m0 0 3 3 2 6 1 4h2v4h-7l-1-1z" fill="#B301FD"/>
<path transform="translate(745,374)" d="m0 0 23 1v1h-22l-1 23-1 1-12 1-7-1v-1l9-1h9l1-23z" fill="#00E3F5"/>
<path transform="translate(164,611)" d="m0 0h5l1 1v9l-3 10-3-1 1-1 1-10-2-4z" fill="#B102FD"/>
<path transform="translate(358,446)" d="m0 0 5 3 3 5 8 3v1h-9l-7-1z" fill="#B901FC"/>
<path transform="translate(538,271)" d="m0 0h1l1 22 7 1h16v1l-10 1h-15l-2-1v-5l1-1z" fill="#375EEE"/>
<path transform="translate(711,186)" d="m0 0 4 1 1 4-1 2-17-2-4-1v-2l15-1z" fill="#E300F9"/>
<path transform="translate(563,295)" d="m0 0h1v23l-2 2-12 1 1-4 11 1v-21z" fill="#297FEF"/>
<path transform="translate(801,213)" d="m0 0h5l1 7v38h-1l-1-37-3-5-1 2-3-1 1-3z" fill="#00E8F7"/>
<path transform="translate(638,346)" d="m0 0h1l1 21-1 1-18 1-17-1v-1l33-1z" fill="#8804F5"/>
<path transform="translate(631,625)" d="m0 0 5 1 3 2v15l-3 6h-1v-20l-1-2z" fill="#A101F9"/>
<path transform="translate(255,262)" d="m0 0 5 1 2 5v8l-1 3h-2l-1-5-3-10z" fill="#00EEF9"/>
<path transform="translate(118,708)" d="m0 0h1l1 37 1 10 1 2-3-1v-2h-2z" fill="#8403F5"/>
<path transform="translate(570,139)" d="m0 0h1v22l-3 5-1-2-9 1 1-3 9-1z" fill="#00E3F5"/>
<path transform="translate(672,378)" d="m0 0h3v17l1 3-4 1-2-3 1-2v-9z" fill="#00FCFE"/>
<path transform="translate(287,660)" d="m0 0 7 1v14l-3-3-2-5-2-4z" fill="#B202FD"/>
<path transform="translate(728,559)" d="m0 0 3 1v23l-1 13h-1v-23l-1-5z" fill="#AB02FC"/>
<path transform="translate(804,267)" d="m0 0h1v7l-4 1-4-1-4 1-1 2-2-3v-3l11-1 3-1z" fill="#00FCFE"/>
<path transform="translate(396,584)" d="m0 0h2l-1 3h-2v12l-1 8-4 2h-19v-1l18-1 3-1 1-16 2-5z" fill="#680AEE"/>
<path transform="translate(735,566)" d="m0 0h1l1 7 5 8v1h-8l-1-4z" fill="#00F8FC"/>
<path transform="translate(300,274)" d="m0 0h1v44l-4 4h-2l1-4 4-1-1-3z" fill="#9402F8"/>
<path transform="translate(357,650)" d="m0 0h1v6l-3 2h-46v-1l45-1 2-2z" fill="#5023EA"/>
<path transform="translate(504,581)" d="m0 0 6 1 1 2v10l-3 1-1-10h-4z" fill="#5A0FEA"/>
<path transform="translate(369,609)" d="m0 0h2v8h3l-1 4-2 3-1 6h-1l-1-9v-10z" fill="#7D07F2"/>
<path transform="translate(352,421)" d="m0 0 3 3 2 5 1 2-2 2-4-9zm-6 10 7 1 3 1 1 3v21h-1l-1-23-9-2z" fill="#7A08F2"/>
<path transform="translate(363,286)" d="m0 0h1v15l-1 21h-1v-31l-2-1z" fill="#00E3F5"/>
<path transform="translate(613,193)" d="m0 0h1v24h-3l1-21z" fill="#C000F8"/>
<path transform="translate(181,443)" d="m0 0h1v9l-1 6h-8l4-6 2-1z" fill="#9A02F8"/>
<path transform="translate(602,325)" d="m0 0h1l1 18-1 1v22l1 2-3-1-1-25h2z" fill="#5810EA"/>
<path transform="translate(474,300)" d="m0 0h4l1 22-3 1v-22z" fill="#8903F6"/>
<path transform="translate(602,143)" d="m0 0h21v1l-15 2-5 1v6h-1z" fill="#E200F8"/>
<path transform="translate(635,561)" d="m0 0 3 2 1 11-1 2h-2l-1 4z" fill="#B302FE"/>
<path transform="translate(349,418)" d="m0 0 3 2 4 11v2l-6-1v-7z" fill="#B801FD"/>
<path transform="translate(477,238)" d="m0 0 3 4 1 4-2 1v10l-3 3-3-2h3z" fill="#7F03F4"/>
<path transform="translate(258,611)" d="m0 0 4 1-1 5h-2v26h-1z" fill="#D400F8"/>
<path transform="translate(403,317)" d="m0 0h1v8l-2-2-4 2-7-1v-1l6-2 3-3z" fill="#7904F4"/>
<path transform="translate(552,219)" d="m0 0h20l-3 2h-6l-7 2-4-1z" fill="#E600F9"/>
<path transform="translate(677,613)" d="m0 0 4 1 8 9-1 2-9-6z" fill="#6B09EF"/>
<path transform="translate(371,611)" d="m0 0h5l2 3-3 6-1-3h-3l-1-4z" fill="#B302FE"/>
<path transform="translate(145,459)" d="m0 0 2 1-3 20-4 3h-5l4-2h2z" fill="#660CED"/>
<path transform="translate(795,291)" d="m0 0 1 4-2 6h-24l2-2h20z" fill="#00E3F5"/>
<path transform="translate(252,262)" d="m0 0h3l4 12 1 2-1 2h-3l-2-10v-2h-2z" fill="#5811EA"/>
<path transform="translate(397,597)" d="m0 0 2 1v6l-3 5h-2v2h-4v-3l3-1 3-5z" fill="#B002FD"/>
<path transform="translate(577,319)" d="m0 0h21v1l-13 1-3 2h-5z" fill="#DD00F8"/>
<path transform="translate(657,376)" d="m0 0 1 3-1 21-3 1-5-1 2-2 4-1 1-20z" fill="#00E3F5"/>
<path transform="translate(651,369)" d="m0 0 4 1-2 5-1 19h-2z" fill="#0DC1F3"/>
<path transform="translate(691,288)" d="m0 0h7l1 2-1 2h-10l-1-3z" fill="#E500F9"/>
<path transform="translate(578,194)" d="m0 0h21l-3 2h-16l-3 1z" fill="#DF00F8"/>
<path transform="translate(557,165)" d="m0 0 2 2 1 5v7l-3 4z" fill="#00E3F5"/>
<path transform="translate(725,557)" d="m0 0h7l1 4-1 20h-1l-1-21-5-2z" fill="#7904F4"/>
<path transform="translate(625,291)" d="m0 0 3 1h-2v24l-4-1 2-5z" fill="#CE00F8"/>
<path transform="translate(81,635)" d="m0 0h1l1 7v8l-3-3v-11z" fill="#9F02FA"/>
<path transform="translate(638,346)" d="m0 0h1l1 21-3 1z" fill="#700AEF"/>
<path transform="translate(750,338)" d="m0 0 1 4-6 2h-14v-1l17-1z" fill="#790AF0"/>
<path transform="translate(861,788)" d="m0 0 4 1-3 2h-17v-1z" fill="#9B02F9"/>
<path transform="translate(731,581)" d="m0 0 2 2-1 10-2 3v-13z" fill="#9B02F9"/>
<path transform="translate(262,315)" d="m0 0 5 5 1 3h-6z" fill="#00FBFD"/>
<path transform="translate(340,757)" d="m0 0h14l-1 2-8 1-5-2z" fill="#9002F7"/>
<path transform="translate(397,233)" d="m0 0m-1 1 6 2 1 5-2-2h-6v-3l-2-1z" fill="#9902F8"/>
<path transform="translate(831,181)" d="m0 0 2 1 1 12-3-2z" fill="#9F02F9"/>
<path transform="translate(354,757)" d="m0 0 9 1v2h-16v-1z" fill="#A602FB"/>
<path transform="translate(358,446)" d="m0 0 3 3-1 7 3 1h-5z" fill="#D500F8"/>
<path transform="translate(724,25)" d="m0 0h3l2 4-7 1v-3z" fill="#E500F9"/>
</svg>
